# xmcd
#
# Track frame offsets: 
#        182
#        14482
#        27687
#        41845
#        55207
#        71182
#        82345
#        96607
#        111802
#        124187
#        139332
#        152400
#        169217
#        183907
#
# Disc length: 2625 seconds
#
# Revision: 0
# Processed by: cddbd v1.5.1PL0 Copyright (c) Steve Scherf et al.
# Submitted via: ExactAudioCopy v0.95b1
#
DISCID=d30a3f0e
DTITLE=Truck Stop - Freund bleiben
DYEAR=1900
DGENRE=Country
TTITLE0=Die Lady und der Tramp
TTITLE1=Die beste aller Frauen
TTITLE2=Das süsse Leben auf dem Land
TTITLE3=Willst du ´nen Kerl oder ´n Adonis
TTITLE4=Freunde bleiben
TTITLE5=Supermarkt
TTITLE6=Dann kommt Country Musik
TTITLE7=Banditos der Liebe
TTITLE8=Mann, so ein flotter Käfer
TTITLE9=Herz aus Gold
TTITLE10=Loch gesucht und nicht gefunden
TTITLE11=In der Hitze der Nacht
TTITLE12=Wir machen aus dem Vater Rhein ´ne Pipeline
TTITLE13=Nichts tut so weh
EXTD=
EXTT0=
EXTT1=
EXTT2=
EXTT3=
EXTT4=
EXTT5=
EXTT6=
EXTT7=
EXTT8=
EXTT9=
EXTT10=
EXTT11=
EXTT12=
EXTT13=
PLAYORDER=
